<?xml version="1.0" encoding="UTF-8" standalone="no"?>
<svg
   xmlns:dc="http://purl.org/dc/elements/1.1/"
   xmlns:cc="http://creativecommons.org/ns#"
   xmlns:rdf="http://www.w3.org/1999/02/22-rdf-syntax-ns#"
   xmlns:svg="http://www.w3.org/2000/svg"
   xmlns="http://www.w3.org/2000/svg"
   id="svg8"
   version="1.1"
   viewBox="0 0 134.56349 18.667246"
   height="18.667246mm"
   width="134.56349mm">
  <defs
     id="defs2" />
  <metadata
     id="metadata5">
    <rdf:RDF>
      <cc:Work
         rdf:about="">
        <dc:format>image/svg+xml</dc:format>
        <dc:type
           rdf:resource="http://purl.org/dc/dcmitype/StillImage" />
        <dc:title></dc:title>
      </cc:Work>
    </rdf:RDF>
  </metadata>
  <g
     transform="translate(-643.98888,152.03988)"
     style="display:inline"
     id="layer2" />
  <g
     style="display:inline"
     transform="translate(-643.98887,65.039878)"
     id="layer1" />
  <g
     transform="translate(-643.98888,152.03988)"
     style="display:inline"
     id="layer3" />
  <g
     transform="translate(-643.98887,-57.960123)"
     id="layer7">
    <path
       id="path3717-0-3"
       d="m 691.41585,59.580093 v 15.427436 h 2.05699 c 0,0 8.16729,0.67156 8.17646,-7.713705 0.009,-8.385296 -8.17646,-7.713731 -8.17646,-7.713731 z"
       style="display:inline;fill:none;fill-opacity:1;stroke:#fdfdfd;stroke-width:3.0854919;stroke-linecap:round;stroke-linejoin:round;stroke-miterlimit:4;stroke-dasharray:none;stroke-opacity:1;paint-order:markers fill stroke" />
    <path
       id="path3719-7-9"
       d="m 715.67714,62.665542 c -0.2574,-1.287633 -1.56941,-3.084865 -4.91092,-3.085472 -3.34152,-5.14e-4 -4.93688,1.799079 -4.9369,3.856865 -1e-5,2.057786 3.34813,3.326182 4.9369,3.856865 1.58876,0.530687 4.98882,1.799289 4.98815,3.856862 -6.1e-4,2.057565 -1.64536,3.856178 -4.98815,3.856844 -3.34279,7.41e-4 -4.85931,-1.802022 -5.11688,-3.085494"
       style="display:inline;fill:none;fill-opacity:1;stroke:#fdfdfd;stroke-width:3.0854919;stroke-linecap:round;stroke-linejoin:round;stroke-miterlimit:4;stroke-dasharray:none;stroke-opacity:1;paint-order:markers fill stroke" />
    <path
       id="path3721-6-53"
       d="m 721.02618,59.671959 -2e-5,15.272994"
       style="display:inline;fill:none;fill-opacity:1;stroke:#fdfdfd;stroke-width:3.0854919;stroke-linecap:round;stroke-linejoin:round;stroke-miterlimit:4;stroke-dasharray:none;stroke-opacity:1;paint-order:markers fill stroke" />
    <path
       d="m 674.71297,67.293798 c 0,0 2.37911,7.802427 6.50553,7.790812 2.82784,-0.008 5.47549,-3.163285 5.47674,-7.790812 10e-4,-4.627536 -2.6494,-7.786371 -5.47674,-7.790925 -4.12642,-0.0066 -6.50553,7.790925 -6.50553,7.790925 z m 0,0 c 0,0 -2.37853,7.802427 -6.50496,7.790812 -2.82786,-0.008 -5.47688,-3.163285 -5.47675,-7.790812 1.4e-4,-4.627536 2.64939,-7.786371 5.47675,-7.790922 4.12643,-0.0066 6.50496,7.790922 6.50496,7.790922 z"
       style="display:inline;fill:none;fill-opacity:1;stroke:#fdfdfd;stroke-width:3.0854919;stroke-linecap:round;stroke-linejoin:round;stroke-miterlimit:4;stroke-dasharray:none;stroke-opacity:1;paint-order:markers fill stroke"
       id="path3715-7-8-5" />
    <path
       d="m 658.38803,59.591078 c -0.0206,9.665527 -1.89996,14.234386 -3.52254,15.427436 -1.47674,-1.28139 -2.434,-7.904857 -2.90556,-11.05633 m -6.42811,-4.371106 c 0.0205,9.665527 1.90006,14.234386 3.52265,15.427436 1.47674,-1.28139 2.4339,-7.904857 2.90546,-11.05633"
       style="display:inline;fill:none;fill-opacity:1;stroke:#fdfdfd;stroke-width:3.0854919;stroke-linecap:round;stroke-linejoin:round;stroke-miterlimit:4;stroke-dasharray:none;stroke-opacity:1;paint-order:markers fill stroke"
       id="path4841-6-3-64" />
    <path
       id="path894"
       d="m 730.36288,59.826234 -9.3367,9.555767"
       style="fill:none;fill-opacity:1;stroke:#fdfdfd;stroke-width:3.0854919;stroke-linecap:round;stroke-linejoin:round;stroke-miterlimit:4;stroke-dasharray:none;stroke-opacity:1;paint-order:markers fill stroke" />
    <path
       id="path896"
       d="m 723.95134,66.42143 6.88265,8.533551"
       style="fill:none;fill-opacity:1;stroke:#fdfdfd;stroke-width:3.0854919;stroke-linecap:round;stroke-linejoin:round;stroke-miterlimit:4;stroke-dasharray:none;stroke-opacity:1;paint-order:markers fill stroke" />
    <path
       id="path3717-0-3-3"
       d="m 735.68489,59.569175 v 15.376163 l 5.16069,0.02391 c 2.26537,-0.03097 5.04967,-1.100726 5.06108,-3.990441 0.0113,-2.889714 -2.65879,-4.055365 -5.06108,-4.055365 h -5.12958 4.19442 c 1.06596,0 5.12495,-0.311506 5.12253,-3.804669 -0.002,-3.493163 -3.90034,-3.489955 -5.12253,-3.549601 z"
       style="display:inline;fill:none;fill-opacity:1;stroke:#fdfdfd;stroke-width:3.0854919;stroke-linecap:round;stroke-linejoin:round;stroke-miterlimit:4;stroke-dasharray:none;stroke-opacity:1;paint-order:markers fill stroke" />
    <rect
       y="59.569176"
       x="753.22174"
       height="15.253992"
       width="24.302126"
       id="rect2732"
       style="fill:none;fill-opacity:1;stroke:#fdfdfd;stroke-width:2.05699468;stroke-linecap:round;stroke-linejoin:round;stroke-miterlimit:4;stroke-dasharray:none;stroke-opacity:1;paint-order:markers fill stroke" />
    <path
       id="path2734"
       d="m 755.79371,63.232802 h 2.88619"
       style="fill:none;stroke:#fdfdfd;stroke-width:2.05699468;stroke-linecap:butt;stroke-linejoin:miter;stroke-miterlimit:4;stroke-dasharray:none;stroke-opacity:1" />
    <path
       id="path2736"
       d="m 755.79371,67.181545 h 2.88619"
       style="fill:none;stroke:#fdfdfd;stroke-width:2.05699468;stroke-linecap:butt;stroke-linejoin:miter;stroke-miterlimit:4;stroke-dasharray:none;stroke-opacity:1" />
    <path
       id="path2738"
       d="m 755.79371,71.130285 h 2.88619"
       style="fill:none;stroke:#fdfdfd;stroke-width:2.05699468;stroke-linecap:butt;stroke-linejoin:miter;stroke-miterlimit:4;stroke-dasharray:none;stroke-opacity:1" />
    <path
       id="path2734-9"
       d="m 760.2524,63.213585 h 2.23994"
       style="fill:none;stroke:#fdfdfd;stroke-width:2.05699468;stroke-linecap:butt;stroke-linejoin:miter;stroke-miterlimit:4;stroke-dasharray:none;stroke-opacity:1" />
    <path
       id="path2736-8"
       d="m 760.2524,67.162325 h 2.23994"
       style="fill:none;stroke:#fdfdfd;stroke-width:2.05699468;stroke-linecap:butt;stroke-linejoin:miter;stroke-miterlimit:4;stroke-dasharray:none;stroke-opacity:1" />
    <path
       id="path2738-6"
       d="m 760.2524,71.111067 h 10.09174"
       style="fill:none;stroke:#fdfdfd;stroke-width:2.05699468;stroke-linecap:butt;stroke-linejoin:miter;stroke-miterlimit:4;stroke-dasharray:none;stroke-opacity:1" />
    <path
       id="path2734-9-6"
       d="m 764.19237,63.205868 h 2.23993"
       style="fill:none;stroke:#fdfdfd;stroke-width:2.05699468;stroke-linecap:butt;stroke-linejoin:miter;stroke-miterlimit:4;stroke-dasharray:none;stroke-opacity:1" />
    <path
       id="path2736-8-3"
       d="m 764.19237,67.154611 h 2.23993"
       style="fill:none;stroke:#fdfdfd;stroke-width:2.05699468;stroke-linecap:butt;stroke-linejoin:miter;stroke-miterlimit:4;stroke-dasharray:none;stroke-opacity:1" />
    <path
       id="path2734-9-3"
       d="m 768.1041,63.205868 h 2.23994"
       style="fill:none;stroke:#fdfdfd;stroke-width:2.05699468;stroke-linecap:butt;stroke-linejoin:miter;stroke-miterlimit:4;stroke-dasharray:none;stroke-opacity:1" />
    <path
       id="path2736-8-8"
       d="m 768.1041,67.154611 h 2.24004"
       style="fill:none;stroke:#fdfdfd;stroke-width:2.05699468;stroke-linecap:butt;stroke-linejoin:miter;stroke-miterlimit:4;stroke-dasharray:none;stroke-opacity:1" />
    <path
       id="path2734-8"
       d="m 771.9649,63.239886 h 2.88619"
       style="fill:none;stroke:#fdfdfd;stroke-width:2.05699468;stroke-linecap:butt;stroke-linejoin:miter;stroke-miterlimit:4;stroke-dasharray:none;stroke-opacity:1" />
    <path
       id="path2736-3"
       d="m 771.9649,67.188626 h 2.88619"
       style="fill:none;stroke:#fdfdfd;stroke-width:2.05699468;stroke-linecap:butt;stroke-linejoin:miter;stroke-miterlimit:4;stroke-dasharray:none;stroke-opacity:1" />
    <path
       id="path2738-3"
       d="m 771.9649,71.137369 h 2.88619"
       style="fill:none;stroke:#fdfdfd;stroke-width:2.05699468;stroke-linecap:butt;stroke-linejoin:miter;stroke-miterlimit:4;stroke-dasharray:none;stroke-opacity:1" />
  </g>
  <g
     transform="translate(-643.98888,152.03988)"
     style="display:inline"
     id="layer4" />
  <g
     transform="translate(-643.98887,-57.960123)"
     style="display:inline"
     id="layer8" />
  <g
     transform="translate(-643.98888,152.03988)"
     style="display:inline"
     id="layer5" />
  <g
     transform="translate(-643.98888,152.03988)"
     style="display:inline"
     id="layer6" />
</svg>
